<svg xmlns="http://www.w3.org/2000/svg" viewBox="0 0 2709.02 3244.46">
    <defs>
        <style>
            .cls-2 {
                fill:#fff;
            }
            .cls-3 {
                fill:#fcfcfc;
            }
            .cls-5 {
                fill:#00a298;
            }
            .cls-6 {
                fill:#00766f;
            }
            .cls-7 {
                mask:url(#mask);
            }
            .cls-8 {
                mask:url(#mask-2);
            }
        </style>

        <mask id="mask" x="-376.48" y="-139.06" width="2204.5" height="3627.47" maskUnits="userSpaceOnUse">
            <path d="M380.43,1317.52A3608.65,3608.65,0,0,1,1592.58,1289c-17.9-21-41.23-36.6-64.5-51.46C1248.69,1059.21,928.69,945,599.55,906c-55.45-6.56-111.7-11-167-3.32S322.44,931,281.75,969.27"/>
            <path d="M224.61-116.35c-294.64,374.57-480,830-557.3,1300.22s-48.61,955,57.23,1419.63c51.22,224.87,123.78,452.16,271.57,629.2s385.68,294.57,610.66,243.83c233.74-52.71,396.62-267.4,490.42-487.87C1308.08,2493,1280,1899.32,1591.52,1459.81c89.42-126.17,208-243.13,232.08-395.89,30.58-194.4-102.48-374.5-239.67-515.59C1201.58,155.13,688.77-152.78,140.5-138.59c-63.28,1.64-141.9,20.25-155,82.19"/>
            <path d="M167.85,260.87C409.14,510.39,568.33,838,615.36,1182c12.13,88.73,18.24,182.17,65.39,258.31,25.13,40.59,60.49,73.62,92,109.53,73.36,83.71,127.92,199.75,91.66,305C837,1934.1,765,1988.46,719,2058.63c-47,71.72-65.52,157.88-83.12,241.82l-193,920.32"/>
            <path d="M358.7,1265.16c34.83-37.39,82.94-60.56,132.7-72.14s101.43-12.24,152.47-10c121.7,5.46,242.85,27.6,357.63,68.43,47.06,16.74,95.69,38.75,123.27,80.4,23.2,35,28,79.35,24.4,121.2a342.2,342.2,0,0,1-73.5,183.31c-70.93,88.41-180.13,135.3-284.78,178.85l-278.83,116"/>
            <path d="M366.89,1196.9c45.93-46.52,117.06-54.8,182.32-58.56,172.85-9.94,348.71-6.45,515.4,40.31,32.68,9.17,65.94,20.56,91.1,43.34,31.89,28.88,46.68,73,48.13,116,2.66,78.36-35,153.78-87.15,212.35s-118.07,102.81-183.23,146.41l-249.63,167"/>
            <path class="cls-2" d="M1371.06,791.53C1487.22,928.79,1550.12,1110,1544,1289.71c49.11-36.31,100.49-79.36,112.1-139.33,9.15-47.29-8.63-95.18-26.1-140.07q-34.9-89.71-69.8-179.41c-12.37-31.78-25.42-64.62-49.91-88.35s-63.87-35.74-93.45-18.78"/>
            <path class="cls-2" d="M1233.68,583.61c-67.56-97.85-116.8-210.26-203.16-292C951.69,217,847.29,173.93,741,152.18s-215.59-23.61-324.11-25.39c-88.85-1.45-180.6-2.39-262.75,31.48,16.5-47.39,63.82-76.33,109.64-96.79C466-28.86,700.08-28,915,25.4c78.46,19.51,156.88,46.59,220.63,96.32,62.34,48.63,107.53,116.86,137.17,190.15s44.51,151.76,53.68,230.28"/>
            <path class="cls-2" d="M250.58,1296.62q237.7,93.39,466,208.66c71.28,36,146,77.65,182.56,148.61,39.13,75.88,24.9,170.09-13.71,246.23s-98.73,138.75-154.82,203.11C450.67,2424.4,253.87,2817.44,164.43,3234"/>
            <path class="cls-2" d="M581.91,2287.08C527.13,2471,543.61,2675.19,627.18,2848c56.93,117.7,145.75,229.25,144,360-.77,58-26.33,121.79-80.43,142.68-51,19.7-107.46-4.71-156.64-28.67-93.55-45.58-191.75-95.18-248.11-182.67-36.22-56.23-51.57-123-64.9-188.57a4738.6,4738.6,0,0,1-94.62-1006.77"/>
        </mask>
        <mask id="mask-2" x="1153.6" y="1311.74" width="905.58" height="925.21" maskUnits="userSpaceOnUse">
            <path class="cls-3" d="M1865.66,1328.45c29.77,33.69,49.81,74.66,69.5,115.08,29.71,61,59.42,122,88.27,183.41a568.75,568.75,0,0,0,12.87-116.4c.27-39.33-4.23-80.63-26.42-113.11-14.57-21.34-35.66-37.2-56.37-52.66-23.27-17.38-49.57-35.65-78.47-32.72"/>
            <path class="cls-3" d="M2020.88,1650.73a1115.91,1115.91,0,0,0,14.48,179.3c28.47-62.77,31.58-136.61,8.5-201.55"/>
            <path class="cls-3" d="M1661.4,1741.4c-11.71,12.17-28.83,17-44.71,22.81A302.26,302.26,0,0,0,1510,1830.89"/>
            <path class="cls-3" d="M1678.5,1715l-293.76,255.5c-45.87,39.9-93.87,83-111.25,141.25-3.45,11.54-5.12,25.39,2.83,34.42s22,9.13,33.93,7.5a223.75,223.75,0,0,0,60.83-17.31c16.64,13.39,24.55,36.75,19.45,57.49s-22.92,37.79-43.87,41.94c-25.37,5-50.4-7.51-75.13-15.06a200.1,200.1,0,0,0-79.93-7.52c-11.59,1.27-25.21,2.86-33.08-5.74-8.78-9.6-4.12-24.83,1-36.79q54.48-127.17,109-254.35"/>
            <path class="cls-3" d="M1297.4,2165.12a299.45,299.45,0,0,1,63.72-26.94c5.27-1.54,11.08-2.9,16.08-.65,4,1.81,6.7,5.61,8.94,9.39a95.08,95.08,0,0,1,13.12,50"/>
        </mask>
    </defs>
    <g id="Final">
        <path class="cls-5" d="M2018.7,1575.8a36.44,36.44,0,0,1-10.94,29.59l-12.41,91.39-31-85.88a36.34,36.34,0,0,1-18.28-28.27,35.84,35.84,0,0,1,3.45-19.11l-66.61-228,129.33,222.73,3,5.2a.24.24,0,0,1,.08.17A35.66,35.66,0,0,1,2018.7,1575.8Z"/>
        <polygon class="cls-5" points="2040.4 1679.31 2036.88 1815.72 1950.36 1714.18 1975.85 1704.33 1995.35 1696.78 2017.1 1688.35 2040.4 1679.31"/>
        <path class="cls-5" d="M1376.08,2127c4.45,8.05,6.46,18,6.27,27.43-.27,10.41-3.22,20.28-8.43,26.38-18.71,21.73-108.66,14.71-201.61,20.58,13.8-4.81,37.72-17.65,44.39-31.1,41.33-83.13,180.92-310.37,528-459.37l-420.42,404.78C1351.16,2103.56,1367.83,2112.19,1376.08,2127Z"/>
        <path class="cls-5" d="M1613.47,1191.27S1258.29,1341.5,989.6,1735.79C867.45,1915.18,763.1,2145,718.3,2434.26c.1-.13.21-.32.31-.45L580.24,3055S562,3224.68,474.1,3117.84c-5.4-6.58-9.21-16.5-11.53-29.41-5.83-32.51,6.13-65.38,30.41-87.76a168.83,168.83,0,0,0,36.57-48c56.55-111.51,25.07-195.85-3.29-240.65-14.85-23.59-28.93-36.28-28.93-36.28S452,2623.14,571,2569.69c6.52-3,13.57-6,21.11-8.9,86.47-33.59,62.51-91.21,29-132.3-22.78-27.91-50-48.2-50-48.2s141.75-68.47,60.69-175.41,1.74-139.52,1.74-139.52,105.42-63.51,163.77-134.28c3-3.62,5.87-7.35,8.63-11s5.39-7.36,7.78-11.11c22.7-34.51,30.75-69.37,7.17-98.22C743.24,1715.82,425.69,1416,440.47,1275s75.33-424.55-111-793.74a969.87,969.87,0,0,0-56.91-98.05c-148-214.19,715.42-4,149.05-171.67s441-118.16,441-118.16C1084.37,114,1211.27,575,1211.27,575s86.83,224.17,223.15,306.77S1613.47,1191.27,1613.47,1191.27Z"/>
        <path class="cls-5" d="M2018.7,1575.8a36.44,36.44,0,0,1-10.94,29.59l-12.41,91.39-31-85.88a36.34,36.34,0,0,1-18.28-28.27,35.84,35.84,0,0,1,3.45-19.11l-66.61-228,129.33,222.73,3,5.2a.24.24,0,0,1,.08.17A35.66,35.66,0,0,1,2018.7,1575.8Z"/>
        <polygon class="cls-5" points="2040.4 1679.31 2036.88 1815.72 1950.36 1714.18 1975.85 1704.33 1995.35 1696.78 2017.1 1688.35 2040.4 1679.31"/>
        <path class="cls-5" d="M1376.08,2127c4.45,8.05,6.46,18,6.27,27.43-.27,10.41-3.22,20.28-8.43,26.38-18.71,21.73-108.66,14.71-201.61,20.58,13.8-4.81,37.72-17.65,44.39-31.1,41.33-83.13,180.92-310.37,528-459.37l-420.42,404.78C1351.16,2103.56,1367.83,2112.19,1376.08,2127Z"/>
        <path class="cls-5" d="M1613.47,1191.27S1258.29,1341.5,989.6,1735.79C867.45,1915.18,763.1,2145,718.3,2434.26c.1-.13.21-.32.31-.45L580.24,3055S562,3224.68,474.1,3117.84c-5.4-6.58-9.21-16.5-11.53-29.41-5.83-32.51,6.13-65.38,30.41-87.76a168.83,168.83,0,0,0,36.57-48c56.55-111.51,25.07-195.85-3.29-240.65-14.85-23.59-28.93-36.28-28.93-36.28S452,2623.14,571,2569.69c6.52-3,13.57-6,21.11-8.9,86.47-33.59,62.51-91.21,29-132.3-22.78-27.91-50-48.2-50-48.2s141.75-68.47,60.69-175.41,1.74-139.52,1.74-139.52,105.42-63.51,163.77-134.28c3-3.62,5.87-7.35,8.63-11s5.39-7.36,7.78-11.11c22.7-34.51,30.75-69.37,7.17-98.22C743.24,1715.82,425.69,1416,440.47,1275s75.33-424.55-111-793.74a969.87,969.87,0,0,0-56.91-98.05c-148-214.19,715.42-4,149.05-171.67s441-118.16,441-118.16C1084.37,114,1211.27,575,1211.27,575s86.83,224.17,223.15,306.77S1613.47,1191.27,1613.47,1191.27Z"/>
        <path class="cls-6" d="M329.14,1305.7c8.71,61,45.34,115.56-15.63,124.26-48.3,6.9-173.83-51.75-223.92-76.43a16.83,16.83,0,0,1-4.29-27.16c43.69-42.42,160.86-152.23,210-159.24C356.24,1158.42,320.44,1244.73,329.14,1305.7Z"/>
        <g class="cls-7">
            <path id="ombre_1" class="cls-6" d="M1613.47,1191.27S1258.29,1341.5,989.6,1735.79C867.45,1915.18,763.1,2145,718.3,2434.26c.1-.13.21-.32.31-.45L580.24,3055S562,3224.68,474.1,3117.84c-5.4-6.58-9.21-16.5-11.53-29.41-5.83-32.51,6.13-65.38,30.41-87.76a168.83,168.83,0,0,0,36.57-48c56.55-111.51,25.07-195.85-3.29-240.65-14.85-23.59-28.93-36.28-28.93-36.28S452,2623.14,571,2569.69c6.52-3,13.57-6,21.11-8.9,86.47-33.59,62.51-91.21,29-132.3-22.78-27.91-50-48.2-50-48.2s141.75-68.47,60.69-175.41,1.74-139.52,1.74-139.52,105.42-63.51,163.77-134.28c3-3.62,5.87-7.35,8.63-11s5.39-7.36,7.78-11.11c22.7-34.51,30.75-69.37,7.17-98.22C743.24,1715.82,425.69,1416,440.47,1275s75.33-424.55-111-793.74a969.87,969.87,0,0,0-56.91-98.05c-148-214.19,715.42-4,149.05-171.67s441-118.16,441-118.16C1084.37,114,1211.27,575,1211.27,575s86.83,224.17,223.15,306.77S1613.47,1191.27,1613.47,1191.27Z"/>
        </g>
        <g class="cls-8">
            <g id="ombre_2" >
                <path class="cls-6" d="M2018.7,1575.8a36.44,36.44,0,0,1-10.94,29.59l-12.41,91.39-31-85.88a36.34,36.34,0,0,1-18.28-28.27,35.84,35.84,0,0,1,3.45-19.11l-66.61-228,129.33,222.73,3,5.2a.24.24,0,0,1,.08.17A35.66,35.66,0,0,1,2018.7,1575.8Z"/>
                <polygon class="cls-6" points="2040.4 1679.31 2036.88 1815.72 1950.36 1714.18 1975.85 1704.33 1995.35 1696.78 2017.1 1688.35 2040.4 1679.31"/>
                <path class="cls-6" d="M1376.08,2127c4.45,8.05,6.46,18,6.27,27.43-.27,10.41-3.22,20.28-8.43,26.38-18.71,21.73-108.66,14.71-201.61,20.58,13.8-4.81,37.72-17.65,44.39-31.1,41.33-83.13,180.92-310.37,528-459.37l-420.42,404.78C1351.16,2103.56,1367.83,2112.19,1376.08,2127Z"/>
            </g>
        </g>
        <path class="cls-6" d="M893.83,2789.14,910.06,2761l101-190.23,10.75-21.29q4.7-9.37,13.09-27,34.38.41,50.19.4,27.54,0,51-.4l28.5,81.45,58,156.64,11.32,28.52q-33.82-.39-41-.39-16.42,0-48.3.39-8.58-32.23-24.76-75.78h-98.32q-17,34.36-35.12,75.78-36.37-.39-44.58-.39Q926.88,2788.75,893.83,2789.14Zm151.22-132.62h60.67q-22.62-68.82-24.76-75.85-12.89,28.66-21.86,47Z"/>
        <path class="cls-5" d="M867.91,3158.32q4.32-44.52,5.9-71.29,2.36-39.84,4.71-103.12,1.77-48.43,1.77-69.34v-22.85q22.85.59,39.44.59,16,0,42-.88t48.82-.88a297,297,0,0,1,45.88,3.12,107.58,107.58,0,0,1,36.81,12.9,90.51,90.51,0,0,1,28.6,25.58,116.67,116.67,0,0,1,17.57,37,158,158,0,0,1,6.06,43.66,189,189,0,0,1-4.69,42.48,158.51,158.51,0,0,1-13.08,36.81,120,120,0,0,1-19.63,28.22,114.72,114.72,0,0,1-25.69,20.22,110.33,110.33,0,0,1-21.68,9.77q-10.93,3.51-29.88,5.66a437.83,437.83,0,0,1-47.85,2.34l-78.91-.58Q892.91,3157.74,867.91,3158.32Zm84.44-58.79q10.74,1,22.45,1a162.06,162.06,0,0,0,35.52-3.52,56.39,56.39,0,0,0,27.43-15q11.8-11.53,17.47-29.59a123.28,123.28,0,0,0,5.66-37q0-23.23-8.4-39.16T1030.12,2954q-14-6.26-38-6.25-14.07,0-33.2,1.17Z"/>
        <path fill="red" d="M2096.06,1534.84c-12.84,71.51-55.66,144.47-55.66,144.47l-23.3,9-21.75,8.43,12.41-91.39a36.44,36.44,0,0,0,10.94-29.59,35.66,35.66,0,0,0-3.35-12.15.24.24,0,0,0-.08-.17l-3-5.2-129.33-222.73,66.61,228a35.84,35.84,0,0,0-3.45,19.11,36.34,36.34,0,0,0,18.28,28.27l31,85.88-19.5,7.55-25.49,9.85s-69.46-35.45-121.23-40-84.44,36.73-84.44,36.73c-347.07,149-486.66,376.24-528,459.37a56.74,56.74,0,0,1-49,31.44C1082,2204,858,2230.5,718.61,2433.81c-.1.13-.21.32-.31.45,44.8-289.24,149.15-519.08,271.3-698.47,268.69-394.29,623.87-544.52,623.87-544.52s203.86-84,364.79,39.14C2117.35,1336.72,2107.43,1471.7,2096.06,1534.84Z"/>
        <path fill="red" d="M1903.21,2051.47c25.75,19.64,26.85,65,26.85,65s-7.91-34.74-33.67-54.38c-24-18.26-71.84-15.14-78.24-14.66l-.71.07-2.83.26c-32.7,4.27-44.71,9.75-78.28,23.64-37.14,15.41-69.64,36.29-97.6,59.19-11.89,12.51-23.5,29.16-27.27,48.72-8.9,45,26.72,88.3,26.72,88.3s-56.32-44.08-51-88.05c-51.4,56.52-77.37,110.13-79,113.38,1.06-5.17,17.32-123.28,105.23-209.47l-231.12,71c.19-9.43-1.82-19.38-6.27-27.43l330.55-113.46c151.35-62.75,293.15,26.19,299.38,29.6-4.24-1.33-28.6-9.3-129.82-3.78C1885.65,2040.41,1895,2045.14,1903.21,2051.47Z"/>
        <path fill="red" d="M1254.58,2789.14l3.9-41,7.62-139.06,2.15-56.06v-30.47q30.32.41,53.6.4,16.62,0,46.75-.4L1452,2674.16l11.49,22.27q2.21-32.82,4.51-92t2.3-81.87q24,.41,38.44.4,6.63,0,38.24-.4l-4.69,58.21-8.79,161.72-1.17,46.68q-25.41-.39-47.49-.39-18.37,0-50.82.39-10.14-19.16-15-27.75l-32.77-55.69q-16.18-27.35-29.84-52.36-9-15.83-18.53-34.78l-4.2,92.62-2,78q-24.18-.39-36.87-.39Q1284,2788.75,1254.58,2789.14Z"/>
        <path fill="red" d="M1583.48,2789.14q11.26-156.84,11.26-241.41l-.19-25.2q34.2.41,45.74.4,5.26,0,42-.4-3.52,43.95-5.68,83.21-2.76,54.69-3.93,102.24t-1.17,81.16l-40-.39Q1619.8,2788.75,1583.48,2789.14Z"/>
        <path fill="red" d="M1714.93,2789.14l4.84-39.46,12-136.91,6-90.24q36.06.41,56.65.4,17.05,0,52.14-.4,2.54,16.81,4.28,25.49t8.67,34q6.92,25.29,11.11,43.75t12.56,63.18q8.61-30.66,15.65-52.73t17.61-50.2q10.58-28.12,13.41-36.81t7.72-26.67q29.31.41,57.43.4,19.14,0,53.12-.4-3.7,65.83-4.88,113.09-2.54,92.58-2.54,127.34,0,7.23.39,26.18-25.78-.39-36.13-.39-15,0-36.92.39,1.59-17.58,4-83.69t2.38-84.48q0-8-.39-22.26l-25.62,79.49-36.78,110.94q-25.39-.39-35-.39-12.12,0-37.11.39l-24.08-107.43-14.09-57.22c-.53-2.21-1.11-4.95-1.77-8.21s-1.69-9-3.13-17.18l-4.92,54.1-6.5,110.94-.59,25q-27-.39-34.38-.39Q1739.93,2788.75,1714.93,2789.14Z"/>
        <path fill="red" d="M2052.82,2789.14,2069,2761l101-190.23,10.75-21.29q4.68-9.37,13.09-27,34.37.41,50.19.4,27.53,0,51-.4l28.5,81.45,58,156.64,11.32,28.52q-33.83-.39-41.06-.39-16.43,0-48.29.39-8.58-32.23-24.77-75.78h-98.31q-17,34.36-35.13,75.78-36.37-.39-44.58-.39Q2085.86,2788.75,2052.82,2789.14ZM2204,2656.52h60.66q-22.62-68.82-24.76-75.85-12.89,28.66-21.85,47Z"/>
        <path fill="red" d="M2411.41,2789.14q4.9-46.09,7.06-75.2,4.13-53.11,6.18-105.57t2.06-85.84q26.55.41,47,.4,13.86,0,39.81-.4l-4.7,70.71L2503,2703.78l-.78,27.15q33.6.59,43.76.59,51.39,0,77.77-1.37l-4.3,59q-51.37-.39-97.85-.39Q2458.67,2788.75,2411.41,2789.14Z"/>
        <path fill="red" d="M1141.93,3158.32l16.22-28.12,101-190.24,10.75-21.29q4.69-9.37,13.09-27,34.37.39,50.19.39,27.54,0,51-.39l28.5,81.45,58,156.64,11.32,28.51q-33.83-.39-41.06-.39-16.42,0-48.29.39-8.58-32.22-24.76-75.78h-98.32q-17,34.38-35.13,75.78-36.36-.39-44.57-.39Q1175,3157.93,1141.93,3158.32Zm151.22-132.61h60.67q-22.62-68.84-24.77-75.85-12.87,28.66-21.85,47Z"/>
        <path fill="red" d="M1558.93,3158.32q2-15.81,4.68-53.71t2.74-53.51l-89.46-159.38q29.47.39,48.6.39,18.35,0,43.91-.39,7.8,19.53,21.18,46.57t21.78,48.32q22.44-39.63,36.11-61.79t19.53-33.1q24.82.39,47.71.39,12.12,0,44-.39L1674,3018.09q-25.59,37.89-25.58,39.65l-.2,2v1.95l-.19,2-1.37,29.68q-1.36,29.5-2.14,65-27.54-.39-42.58-.39Q1586.46,3157.93,1558.93,3158.32Z"/>
    </g>
</svg>